<svg width="605" height="605" xmlns="http://www.w3.org/2000/svg" xmlns:xlink="http://www.w3.org/1999/xlink" xml:space="preserve" overflow="hidden"><g><path d="M506.309 81.0133C485.607 60.3109 452.143 60.3109 431.441 81.0133L408.375 104.079 500.921 196.625 523.987 173.559C544.689 152.857 544.689 119.393 523.987 98.6906L506.309 81.0133ZM223.472 288.982C217.705 294.748 213.263 301.838 210.71 309.684L182.729 393.628C179.987 401.758 182.162 410.738 188.212 416.883 194.262 423.027 203.242 425.107 211.466 422.366L295.41 394.384C303.162 391.832 310.252 387.389 316.112 381.623L468.875 228.671 376.329 136.125 223.472 288.982ZM151.25 121C101.148 121 60.5 161.648 60.5 211.75L60.5 453.75C60.5 503.852 101.148 544.5 151.25 544.5L393.25 544.5C443.352 544.5 484 503.852 484 453.75L484 363C484 346.268 470.482 332.75 453.75 332.75 437.018 332.75 423.5 346.268 423.5 363L423.5 453.75C423.5 470.482 409.982 484 393.25 484L151.25 484C134.518 484 121 470.482 121 453.75L121 211.75C121 195.018 134.518 181.5 151.25 181.5L242 181.5C258.732 181.5 272.25 167.982 272.25 151.25 272.25 134.518 258.732 121 242 121L151.25 121Z" fill="#4E014E"/></g></svg>