<svg width="605" height="605" xmlns="http://www.w3.org/2000/svg" xmlns:xlink="http://www.w3.org/1999/xlink" xml:space="preserve" overflow="hidden"><g><path d="M332.75 121C332.75 104.268 319.232 90.75 302.5 90.75 285.768 90.75 272.25 104.268 272.25 121L272.25 272.25 121 272.25C104.268 272.25 90.75 285.768 90.75 302.5 90.75 319.232 104.268 332.75 121 332.75L272.25 332.75 272.25 484C272.25 500.732 285.768 514.25 302.5 514.25 319.232 514.25 332.75 500.732 332.75 484L332.75 332.75 484 332.75C500.732 332.75 514.25 319.232 514.25 302.5 514.25 285.768 500.732 272.25 484 272.25L332.75 272.25 332.75 121Z" fill="#4E014E"/></g></svg>