<svg width="605" height="605" xmlns="http://www.w3.org/2000/svg" xmlns:xlink="http://www.w3.org/1999/xlink" xml:space="preserve" overflow="hidden"><g><path d="M219.974 66.0773 211.75 90.75 121 90.75C104.268 90.75 90.75 104.268 90.75 121 90.75 137.732 104.268 151.25 121 151.25L484 151.25C500.732 151.25 514.25 137.732 514.25 121 514.25 104.268 500.732 90.75 484 90.75L393.25 90.75 385.026 66.0773C380.866 53.6937 369.334 45.375 356.288 45.375L248.712 45.375C235.666 45.375 224.134 53.6937 219.974 66.0773ZM484 196.625 121 196.625 140.946 502.055C142.459 525.972 162.31 544.5 186.227 544.5L418.773 544.5C442.69 544.5 462.541 525.972 464.054 502.055L484 196.625Z" fill="#FFFFFF"/></g></svg>